<?xml version="1.0" encoding="UTF-8" standalone="no"?>
<svg id="svg2" xmlns:rdf="http://www.w3.org/1999/02/22-rdf-syntax-ns#" xmlns="http://www.w3.org/2000/svg" height="1266pt" width="726pt" version="1.1" xmlns:cc="http://creativecommons.org/ns#" xmlns:dc="http://purl.org/dc/elements/1.1/" viewBox="0 0 726 1266">
 <metadata id="metadata94">
  <rdf:RDF>
   <cc:Work rdf:about="">
    <dc:format>image/svg+xml</dc:format>
    <dc:type rdf:resource="http://purl.org/dc/dcmitype/StillImage"/>
    <dc:title/>
   </cc:Work>
  </rdf:RDF>
 </metadata>
 <g id="g4243">
  <path id="path4" d="m493.9-0.072266c-30.5 0.17736-47.37 28.435-65.19 49.384-18.16 2.738-41.77 3.201-54.57 16.901 12.05 5.5 27.81 5.049 40.87 10.549 5.69-6.975 7.4-16.313 13.55-23 32.08-1.738 64.39-2.662 96.37 1.076 23.91 3.437 49.09 5.35 70.57 17.474 0.36-0.65 1.1-1.936 1.47-2.574-7.81-34.475-33.23-68.676-71.42-69.738h-28.65c-1.01-0.053906-2.01-0.077987-3-0.072266zm55.94 62.123c-1.31 7.375-2.52 14.837-5.05 21.912-1.58-6.938-3.19-13.876-5.07-20.738-3.6 9.175-4.13 19.65-9.83 27.988-2.4 4.987-0.04 7.887 5.35 7.725 20.99 5.572 19.16-24.475 14.6-36.887zm134.23 221.52c-46.56 4.4-80.51 44.98-101.72 83.77-23.03 40.07-30.96 101.27 6.56 134.23-20.69-33.07-18.65-76.02-6.67-111.85 19.36-38.26 48.35-73.5 87.56-92.4 4.85-4.02 17.36-5.97 14.27-13.75zm-260.21 31.43c-1.85 0.84-3.66 1.74-5.46 2.66-19.69 46.73-16.52 110.75 26.21 143.93 3.82 3.16 13.39 10.87 12.79-0.31-4.69-9.28-17.03-12.38-21.49-22.24 5.33 1.6 11.18 8.1 16.6 6.45-7.5-6.8-16.7-12.05-22.42-20.6 7.44 3.06 13.47 8.75 21.07 11.45-9.55-10.03-20.38-19.15-27.63-31.12 9.26 6.15 17.6 13.73 27.68 18.58-11.4-14.96-25.36-28.62-32.46-46.37 8.59 9.33 15.8 20.41 27.35 26.48-9-15.16-21.94-28.09-27.38-45.22 8.24 8.46 13.77 19.59 23.85 26.25-10.61-21.66-25.86-44.54-18.71-69.94zm217.24 157.64c4.19 5.12 10.71 7.06 16.33 10.15-4.7 5.08-13.05-0.57-18.62-1.65 3.48 4.8 8.89 8.27 11.08 13.95-6.78-2.6-13.09-6.26-19.86-8.88 3.32 7.64 11.3 11.28 16.25 17.6-5.54-1.87-10.89-4.31-16.37-6.34 3.79 5.89 11.3 9.93 14.63 15.13-7.77-1.74-14.24-6.95-21.97-8.88 4.2 5.33 9.59 9.62 13.61 15.09-6.58-2.15-12.38-6.02-18.64-8.9 4.36 7.43 13.27 10.1 18.12 16.95-4.56 1.43-22.95-15.88-24.85-9.18 10.6 8.02 22.25 18.05 35.5 20.22 10.17-16.76 19.35-35.46 20.28-55.37 3.97-17.5-16.47-3.38-25.49-9.89zm-18.79 65.11c7.34 10.14 20.74 13.37 30.01 21.22-12.68-3.78-24.01-11.58-37.14-14.06 9.5 9.9 22.59 14.99 33.46 22.8-12.04-3.77-24.01-7.84-36.15-11.39 7.05 8.14 17.6 12.29 24.72 20.18-15.93-2.65-30.24-11.29-46.26-13.88 10.69 8.47 24.37 12.41 34.11 22.22-15.26-3.71-30.28-8.28-45.03-13.62 10.77 9.23 24.81 14.42 36.02 22.75-13.62-4.15-27.26-8.33-41.2-11.4 8.07 9.58 23.34 10.85 31.14 20.15-14.49-1.3-28.55-11.05-41.98-10.71 25.28 14.03 52.02 24.91 77.08 39.38 13.41-26.24 9.13-57.49 19.66-84.78-13.55 0.69-25.76-5.01-38.44-8.86zm-215.41 0.05c4.08 10.13 9.54 19.6 14.39 29.36 12.77 23.75 39.64 28.56 62.24 37.96 12.33 3.06 10.11 14.96 11.11 24.07 16.55-27.23-16.55-44.31-38.17-49.41-22.37-5.03-34.17-31.57-49.57-41.98zm3.42 63.35c-0.16 2.11-0.5 6.34-0.66 8.45-8.7 31.41 15.54 70.9 50.65 63.54-33.65-5.94-50-40.88-49.99-71.99zm198.47 23.78c11.67 10.16 25.39 19.38 32.64 33.66-9.5-5.94-18.22-13.63-28.84-17.47 11.07 10.47 22.79 21.4 29.81 35.04-8.65-3.42-14.74-11.65-23.52-15.05 13.48 12.2 21.43 28.73 34.16 41.54 3.63-8.47-0.09-17.47-6.89-22.97 10.4 7.68 4.33-14.09-0.69-17.83-7.91-5.3 5.74-13.21-2.1-17.73-11.36-6.61-21.87-15.26-34.57-19.19zm12.5 54.98c11.98 11.69 18.71 29.79 33.1 37.97 1.87-19.83-20-27.96-33.1-37.97zm0.11 16.16c9.84 13.25 20.11 26.46 27.44 41.33-10.55-8.57-19.2-19.36-30.31-27.24 11.21 15.71 21.32 32.18 31.51 48.58-12.17-7.09-19.16-20.53-31.11-27.64 9.67 15.24 21.67 29.37 28.73 46.25-11.65-8.66-22-18.85-32.75-28.56 8.6 17.02 22.55 30.66 31.04 47.81-12.35-8.74-22.34-20.19-33.6-30.16 8.67 17.88 23.08 32.45 32.61 49.76-13.98-6.89-22.89-20.59-35.11-29.84 10.57 17.64 21.9 34.85 32.68 52.39-14.95-11.13-26.51-26.46-42.33-36.43 15.41 19.85 31.34 39.83 42.42 62.53-14.07-11.65-25.58-26.54-41.18-36.29 13.52 18.26 26.21 37.33 38.68 56.29-15.82-13.25-29.48-29.21-46.19-41.31 17.82 19.5 32.48 41.9 44.93 65.1-16.87-14.6-28.59-35.53-48.7-46.29 19.04 20.51 33.59 44.69 47.45 68.84-14.71-19.71-30.72-39.88-52.45-52.64 15.06 16.6 31.75 33.15 38.64 55.14-13.36-11.31-26.61-22.93-41.27-32.53 15.16 15.16 30.77 30.84 38.79 51.25-12.68-11.05-23.99-24.02-38.64-32.6 14.13 15.67 26.71 32.99 34.92 52.54-13.1-10.55-23.2-24.76-37.88-33.39 13.29 17.42 27.5 34.5 36.69 54.64-13.07-6.43-18.42-22.34-31.56-28.44 22.36 29.03 40.95 61.84 50.19 97.44 0.71-0.3 2.12-1 2.84-1.3 17.28-106.02 19.58-214 22.51-321.21-1.75-21.19-24.63-31.4-38.99-44.02zm237.26 130.44c-4.24 0.04-5.5 1.6 1.1 7.13 9.94 9.66 14.56 32.16-4.16 34.6-44.14 192.76-85.36 386.36-129.69 579.16-6.47 26.8 30.25 18.5 44.23 11.5-5.23-2.7-11.03-4.1-16.25-6.8 41.25-191.6 85.38-382.6 126.18-574.38 2.82-16.35-2.75-33.06 1.19-49.27-3.79 1.19-16.39-2-22.6-1.94zm-467.51 21c12.01 10.05 26.8 27.69 44.03 20.03-12.85-10.3-31.29-8.78-44.03-20.03zm-8.54 9.85c10.99 13.58 32.77 27.06 48.58 19.3-15.41-8.86-34.09-8.16-48.58-19.3zm-6.35 13.83c11.99 10.67 32.94 26.39 47.28 13.8-13.78-6.81-32.5-6.75-47.28-13.8zm-14.81 10.01c12.47 12.04 35.12 27.36 52.25 15.25-15.71-9.18-35.78-6.91-52.25-15.25zm-10.09 11.2c11.27 7.64 21.88 17.33 35.86 19.34-14.12 5.55-33.65-7.14-50.08-9.09 11.65 9.98 25.57 18.75 40.48 21.09-17.33 3.61-33.99-5.69-51.22-6.43 11.63 10.39 27.36 16.94 43.32 16.69-18.77 4.46-40.88-3.67-60.61-7.97 15.13 11.4 35.64 20.22 55.4 19.17-19.51 3.47-43.07-4.94-64.35-7.9 15.24 9.99 33.74 20.95 53.18 19.1-21.19 7.39-42.98-5.3-66.72-7.86 13.36 8.27 29.32 19.46 46.69 19.3-17.49 3.01-38.6-5.18-57.74-5.34 12.04 10.74 34.07 14.34 49.43 17.44-20.81 4.54-41.21-5.68-62.22-2.59 11.91 5.06 28.43 10.09 40.54 15.7-11.23 3.08-30.81-6.27-41.57-2.31 17.23 10.06 40.56 18.56 60.55 9.22 7.41-5.02 12.92-12.19 19.24-18.42 17.87-20.72 35.95-41.68 56.26-59.99 5.16-5.79 10.65-11.31 15.1-17.67-21.35 2.04-41.67-4.22-61.54-11.48zm-69.92 116.1c14.41 12.1 33.27 20.7 50.06 29.9-5.62-21-32.4-24.1-50.06-29.9zm8.72 18.7c20.21 13 39.2 29 58.5 42.9-17.26-8.4-33-21.1-52.21-25.2 17.44 13.8 35.61 26.9 53.5 40.2-15.6-6.4-30.22-15.1-46.42-20 12.11 10 25.36 19 36.51 30-12.25-4.3-24.14-9.6-36.36-13.9 18.71 14.6 40.01 26.3 57.54 42.6-16.7-9.5-35.27-14.4-52.62-22.5 14.27 14.8 36.3 19.9 48.87 36.3-14.72-6-29.53-12-44.79-16.5 18.26 14.3 40.27 24.2 57.28 40.3-17.76-6.9-33.74-18.2-52.46-22.6 18.58 13.6 42.04 26.2 56.96 41-16.91-5.1-31.86-16.8-49.4-21 14.7 14.3 33.77 24.1 48.53 37.7-15.43-6.1-30.15-14.1-46.05-19.1 19.36 16 41.77 29.5 61.17 45.2-20.01-9.1-39.74-19-59.92-27.7 18.48 17 41.41 28.8 61.18 43.9-19.6-8.6-37.76-20.8-58.69-26.2 15.51 14.5 36.81 22.2 52.25 36.4-16.24-6.4-32.28-14.1-49.41-18.1 13.73 12.6 32.56 19.6 45.87 32.9-14.93-6.4-29.92-13.2-45.95-16.4 17.22 12.7 38.17 25 54.55 40.2-19.25-7.5-36.12-20.3-55.95-26.4 23.12 19.7 50.36 35 74.83 52.7-26.61-11.6-50.38-29.8-78.56-37.8 24.59 17.7 50.44 34.4 73.53 54-23.08-10.7-44.52-25.5-68.65-33.9 18.96 17 40.65 31.1 59.97 47.6-21.51-7.1-39.83-21.4-61.05-29 21.62 13.8 39.89 32.6 62.08 45.4-21.22-6.4-38.1-22.2-59.59-27.9 19.8 16.2 40.49 32.7 61.2 48.2-48.57 4.4-97.47 13.4-146.12 4.3-34.47 7.4-68.67 17.8-99.94 34.2-4.04 3.8-12.89 5.7-12.72 12.4 49.62 0.3 99.38-1.4 148.89 0.8 56.64 0.2 113.29 0.7 169.92 0.7 48.77-0.3 97.7-1.5 146.41 0.6 10.09-0.1 20.36 1.4 30.38-0.3 9-67.2 13.3-135 14.79-202.7-8.89-28.5-28.43-53-54.08-68.2 14.32 17.5 26.72 37 39.81 55-14.31-6.9-22.42-23.3-37.35-30 11.42 16.4 25.46 31.6 33.7 50-13.13-11.7-23.52-27.2-39.95-34.9 15.3 14.6 27.5 32.1 38.77 49.9-14.74-9.5-25.72-24-41.25-32.5 12.46 13.6 25.17 27.3 33.74 43.8-12.02-8.2-22.01-19.3-35.01-26.2 12.25 13.7 25.43 26.8 34.61 42.9-10.22-6.9-20.16-14.3-30.86-20.5 10.93 14.7 24.9 27.2 35 42.5-14.89-7.7-26.4-20.9-41.24-28.7 12.45 13.8 25.24 27.3 37.24 41.5-14.82-5.9-25.69-19-41-23.9 15.52 12.1 26.82 28.1 39.68 42.7-14.13-8.1-26.98-18.3-41.11-26.5 12.44 13.1 24.9 26.2 36.2 40.3-13.66-6.5-24.37-17.7-37.25-25.4 11.28 14.4 26.7 25.6 35.96 41.5-15.46-6.9-26.63-21-42.41-27.6 12.15 12.9 26.22 24.4 35.09 40-12.29-7.5-23.14-17.6-36.25-23.8 11.79 11.6 24.26 22.8 33.41 36.7-13.6-9.7-27.58-19.4-43.31-25.4 11.29 12.4 25.9 21.7 35.96 35.2-13.78-6.2-25.2-17-39.96-21.3 10.08 10.4 23.02 18.2 31.3 30.2-48.73-10.6-98.41-15.5-147.33-25.1-1.82 0.1-5.5 0.3-7.33 0.5-12.78-108.8-41.47-215.4-81.28-317.3-11.29-23.3-38.5-31.5-61.35-38.7zm318.72 27.8c9.67 12.2 15.96 26.7 25.23 39 8.77-17.2-15.73-28.7-25.23-39zm0.07 19.8c9.82 13.5 16.31 29.2 26.27 42.6 7.94-18.3-15.35-31.4-26.27-42.6zm-2.42 17.4c12.75 14.2 21.23 31.1 29.87 48.1 8.24-19.6-15.15-38.4-29.87-48.1zm-3.85 16.4c14.91 15.3 20.58 38.2 37.7 50.9-1.38-22.2-20.34-39.2-37.7-50.9zm1.04 22.7c6.49 11.4 16.64 21 21.16 33.6-10.08-3.1-15.24-14.8-26-17.5 15.4 15.6 25.11 37.1 41.34 51.2 1.89-7.7-4.32-18.6-9.13-26 5.05 1.7 7.83 10.3 11.07 10.5-2-22.2-19.5-40.9-38.44-51.8zm-142.41 199.5c-5.17 3.1-5.72 9.8-7.37 15.1 25.21-9.8 50.01 19.9 73.12 19.6-24.5-7-39.61-32.5-65.75-34.7zm-221.31 16.1c0.04 4.1-0.11 9.5 3.74 12.2 30.55 3.6 61.61 3.8 91.22 12.8-20.03-7.1-39.85-19.8-62.28-16.9-11.43 0.5-22.28-3.9-32.68-8.1zm94.96 25c2.05 0.7 4.11 1.4 6.16 2-2.04-0.7-4.1-1.4-6.16-2zm337.32 90.4c-10.3 0-20.61 0.3-30.88 0.2 5.14 16.6-2.04 33.5-5.12 50.1-2.6 9.5-2.48 22.6-14.04 26.1 37.39 34.5 94.46 30.6 141.06 43.8h17.49c37.96 4.1 42.86-36.9 49.56-63.8-0.53-6.1-0.41-12.2-1.74-18.2-43.01-23.7-91.54-37.4-141.07-33 44.02 4.9 94.06 10.7 133.5 35.5 5.08 11.4-2.31 17.6-10.86 9.4 1.65 8.4 1.53 20.6-6.89 25.3 1.62-9.6 2.27-19.5 0.55-29.1-5.23 8.7-6.84 19.9-15.05 26.6 0.15-9.7 4.07-19.6 1.3-29.2-5.89 7-6.35 17.5-12.73 24.2 1.2-10.4 4.26-21.1 1.43-31.4-6.83 8.1-9.87 20.4-15.54 29.9-2.71-9.8 5.42-23.6 0.66-32.3-9.47 6.5-9.33 24.3-17.88 32.1 0.96-13.1 6.39-26.5 2.63-39.6-9.02 8.4-10.36 26.3-18.88 35.8 1.53-12.8 9.91-30.9 3-40.9-6.75 8.8-8.72 23.6-15.67 33.5-3.1-10.3 7.95-27.7-0.73-37.5-4.28 10.3-7.39 21-11.73 31.2-3.2-8.3 7.27-28.6-3.21-34.7-3.13 13.3-5.32 27-10.69 39.6-2.24-12 6.29-28.6 0.49-42.2-10.56 17.2-10.66 40.3-18.78 59.1 1.63-20 8.2-40.4 5.01-60.4-7.45 15.7-11.61 32.9-15.42 49.9-2.44-15.3 7.28-33.4 2.79-49.7-4.33 6.4-3.11 18.7-7.81 26.4-4.55-9 6-26.9-5.63-29.1 14.33-7.4 35.51-2.1 51.67-6-10.21-1.3-20.5-1.6-30.79-1.6zm28.02 93.9c29.45 0 58.79 8.5 88.17 5.3 4.92 1.2 14.78 3.7 16.14 8.1-33.85 10.9-74.48-4-104.31-13.4z" transform="scale(.8)" fill="#020201"/>
  <path id="path6" d="m476.78 52.246c-16.08-0.019-32.18 0.647-48.22 1.516-6.15 6.687-7.86 16.025-13.55 23-1.67 27.848-15.76 51.778-26.23 76.838 4.37 9.9 25.96-2.75 17.26 15.1-8 16.01 18.34 20.1 11.39 36.51-4.78 24.45 29.9 21.44 44.47 22.88 0.75 7.92 1.04 15.9 2.26 23.79-9.01 34.17-21.94 70-20.06 106.61 23.94-0.04 51.97-1.06 71.69-16.5 26.31-28 57.12-54.04 75.4-88.21-0.08-22.52 6.05-44.87 2.45-67.38-0.52-24.11-9.96-49.06 0.07-72.4-2.06-12.99-1.08-28.912-12-38.324-13.26-9.363-27.57 4.049-26.21 18.224-0.24 11.3-13.69 5.362-20.26 5.038-5.39 0.162-7.75-2.738-5.35-7.725 1.47-12.125 3.24-26.113-4.96-36.375-15.99-1.869-32.06-2.573-48.15-2.592zm-40.75 50.344c2.8-0.11 6.37 1.3 7.91 2.3 3.46 2.73 12.75 1.17 10.81 7.42-3.84-1.19-19.24 5.9-14.97-2.38-2.64 1.36-2.07 6.06-5.96 5.1-11.81 12.43-14.05-21.705-1.56-8.5-0.1-2.84 1.6-3.85 3.77-3.94zm-80.99 248.66c-19.53 25.19-36.54 52.39-50 81.29-6.24 12.76-13.19 28.17-28.51 31.45-65.23 22.52-83.88 97.18-129.62 141.52-7.75 9.2-21.02 7.3-31.53 5.2-30.592-2.07-58.505 10.12-85.48 22.38 1.675 23.9 30.913 4.81 41.688 10.53-25.25 10.19-56.5 18.51-71.588 42.87v3.26c16.25 16.9 35.312-19.95 52.125-15.05-13.9 12.29-27.337 28.05-31.787 46.87-3.213 9.88 9.987 11.59 15.687 7.08 10.713-10.25 13.062-28.92 27.512-35.04-4.862 16.05-17.312 30.8-16.562 47.94 26.575 6.7 21.325-39.97 47.988-42.9-4.85 12.74-4.2 26.64-7.063 39.76-1.025 10.46 15.48 7.38 16.13-0.82 3.21-13.59 5.56-28.06 13.98-39.6 26.54-19.59 56.12-34.67 86.6-47.11 46.8-28.54 88.04-66.29 122.77-108.52 12.84-25.6 39.11-38.05 60.34-55.18-7.18-36.17-11-73.57-5.12-110.21-9.16-8.6-18.15-17.41-27.56-25.72zm416.16 52.43c-36.45 14.06-68.98 41.52-87.41 76.14 17.9 24.63 37.16 48.62 60.78 68.06 7.93 6.23 16.32 15.12 12.17 26.15-7.11 34.33-11.45 76.17 12.52 104.44 8.18 30.69 6.89 62.54 5.67 93.92-1.83 30.82 18.02 64.31 50.54 68.29 16.37 1.72 20.83 27.44 37.87 22.86 9.05-10.05-2.17-20.67-3.58-29.9-16.25-13.62 15.11-3.18 21.5-5.19-3.94 16.21 1.63 32.92-1.19 49.27 5.84-2.9 6.53 14.25 15.28 13.44 18.51 4.39 8.07-19.79 12.15-29.15v-13.73c-5.79-16.98 3.29-41.92-17.71-50.68-18.83-4.91-39.13-5.59-57.08-14.05-7.26-11.57 1.19-25.14-0.78-37.83 4.82-59.68 20.39-120.17 8.67-179.93-2.93-6.55-6.85-13.64-4.39-20.97 6.05-24.32-10.65-45.31-22.55-64.72-16.46-24.19-26.56-51.91-42.46-76.42z" transform="scale(.8)" fill="#b67452"/>
  <path id="path8" d="m524.93 54.838c8.2 10.262 6.43 24.25 4.96 36.375 5.7-8.338 6.23-18.813 9.83-27.988 1.88 6.862 3.49 13.8 5.07 20.738 2.53-7.075 3.74-14.537 5.05-21.912 4.21 11.463 6.07 37.946-10.2 37.541 6.86 1.318 15.67 3.458 15.86-5.692-1.36-14.175 12.95-27.587 26.21-18.224 10.92 9.412 9.94 25.334 12 38.324 6.04-13.94 6.96-29.587 3.26-44.262-0.37 0.638-1.11 1.924-1.47 2.574-21.48-12.124-46.66-14.037-70.57-17.474zm14.71 44.754c-1.61-0.312-3.15-0.593-4.4-0.654 1.6 0.426 3.06 0.62 4.4 0.654zm-9.99 1332.7c-24.41 0.1-48.84 0.5-73.22 0.6 48.76 1.8 97.62 0.6 146.41 0.6-24.36-1-48.77-1.3-73.19-1.2z" transform="scale(.8)" fill="#787566"/>
  <path id="path12" d="m436.03 102.59c-2.17 0.09-3.87 1.1-3.77 3.94 0.5 2.83 1.03 5.66 1.56 8.5 3.89 0.96 3.32-3.74 5.96-5.1 1.45-1.63 2.82-3.32 4.16-5.04-1.54-1-5.11-2.41-7.91-2.3zm-205.3 1328.5c-31.03-0.1-62.1 0.5-93.11 0.3 47.48 2.4 99.63 0.7 148.89 0.8-18.57-0.8-37.17-1.1-55.78-1.1zm444.39 12.4c-13.21-0.1-26.41 0.7-39.48 2.8-15.18 26.3-32.5 64.2-13.4 92.4 11.56-3.5 11.44-16.6 14.04-26.1 3.08-16.6 10.26-33.5 5.12-50.1 20.54 0.2 41.24-1.2 61.67 1.4-16.16 3.9-37.34-1.4-51.67 6 11.63 2.2 1.08 20.1 5.63 29.1 4.7-7.7 3.48-20 7.81-26.4 4.49 16.3-5.23 34.4-2.79 49.7 3.81-17 7.97-34.2 15.42-49.9 3.19 20-3.38 40.4-5.01 60.4 8.12-18.8 8.22-41.9 18.78-59.1 5.8 13.6-2.73 30.2-0.49 42.2 5.37-12.6 7.56-26.3 10.69-39.6 10.48 6.1 0.01 26.4 3.21 34.7 4.34-10.2 7.45-20.9 11.73-31.2 8.68 9.8-2.37 27.2 0.73 37.5 6.95-9.9 8.92-24.7 15.67-33.5 6.91 10-1.47 28.1-3 40.9 8.52-9.5 9.86-27.4 18.88-35.8 3.76 13.1-1.67 26.5-2.63 39.6 8.55-7.8 8.41-25.6 17.88-32.1 4.76 8.7-3.37 22.5-0.66 32.3 5.67-9.5 8.71-21.8 15.54-29.9 2.83 10.3-0.23 21-1.43 31.4 6.38-6.7 6.84-17.2 12.73-24.2 2.77 9.6-1.15 19.5-1.3 29.2 8.21-6.7 9.82-17.9 15.05-26.6 1.72 9.6 1.07 19.5-0.55 29.1 8.42-4.7 8.54-16.9 6.89-25.3 8.55 8.2 15.94 2 10.86-9.4-39.44-24.8-89.48-30.6-133.5-35.5 49.53-4.4 98.06 9.3 141.07 33 1.33 6 1.21 12.1 1.74 18.2 9.61-38.1-35.43-46.1-60.21-59.8-13.98 7-50.7 15.3-44.23-11.5-16.8-2.3-33.81-3.8-50.79-3.9zm25.18 112.7c29.83 9.4 70.46 24.3 104.31 13.4-1.36-4.4-11.22-6.9-16.14-8.1-29.38 3.2-58.72-5.3-88.17-5.3z" transform="scale(.8)" fill="#3a3d36"/>
  <path id="path14" d="m427.47 103.45c-6.76-0.59-3.61 22.07 6.35 11.58-0.53-2.84-1.06-5.67-1.56-8.5-1.95-2.07-3.54-2.97-4.79-3.08zm16.47 1.44c-1.34 1.72-2.71 3.41-4.16 5.04-4.27 8.28 11.13 1.19 14.97 2.38 1.94-6.25-7.35-4.69-10.81-7.42z" transform="scale(.8)" fill="#c0bd9e"/>
  <path id="path18" d="m600.37 249.91c-1.57 0-3.13 0.02-4.69 0.06-2.55-0.46-3.29 2.17-4.49 3.81-18.28 34.17-49.09 60.21-75.4 88.21-19.72 15.44-47.75 16.46-71.69 16.5-1.88-36.61 11.05-72.44 20.06-106.61-6.1 0.04-13.11-2.58-18.21 1.88-7.44 21.5-24.09 41.08-27.55 63.9 1.8-0.92 3.61-1.82 5.46-2.66-7.15 25.4 8.1 48.28 18.71 69.94-10.08-6.66-15.61-17.79-23.85-26.25 5.44 17.13 18.38 30.06 27.38 45.22-11.55-6.07-18.76-17.15-27.35-26.48 7.1 17.75 21.06 31.41 32.46 46.37-10.08-4.85-18.42-12.43-27.68-18.58 7.25 11.97 18.08 21.09 27.63 31.12-7.6-2.7-13.63-8.39-21.07-11.45 5.72 8.55 14.92 13.8 22.42 20.6-5.42 1.65-11.27-4.85-16.6-6.45 4.46 9.86 16.8 12.96 21.49 22.24 1.46 5.56 2.56-1.95 3.56-4 38.43-88.48 113.24-162.86 206.95-190.09-20.2-12.28-44.05-17.29-67.54-17.28zm-169.28 6.15c-39.14 12.08-55.86 53.69-83.66 80.13-8.15 6.03 3.11 10.71 7.61 15.06 9.41 8.31 18.4 17.12 27.56 25.72 13.72-41.1 28.03-82.55 48.49-120.91zm254.98 27.39c-0.5 0.02-1.5 0.09-2 0.12 3.09 7.78-9.42 9.73-14.27 13.75-39.21 18.9-68.2 54.14-87.56 92.4-11.98 35.83-14.02 78.78 6.67 111.85 6.91 5.78 13.17 13.07 21.9 16.11 1.9-6.7 20.29 10.61 24.85 9.18-4.85-6.85-13.76-9.52-18.12-16.95 6.26 2.88 12.06 6.75 18.64 8.9-4.02-5.47-9.41-9.76-13.61-15.09 7.73 1.93 14.2 7.14 21.97 8.88-3.33-5.2-10.84-9.24-14.63-15.13 5.48 2.03 10.83 4.47 16.37 6.34-4.95-6.32-12.93-9.96-16.25-17.6 6.77 2.62 13.08 6.28 19.86 8.88-2.19-5.68-7.6-9.15-11.08-13.95 5.57 1.08 13.92 6.73 18.62 1.65-5.62-3.09-12.14-5.03-16.33-10.15 7.87 5.68 24.42-4.34 25.89 4.63 2.53-3.25 12.98 12.96 16.8 2.55 18.43-34.62 50.96-62.08 87.41-76.14 2.19-2.92 15.61-1.93 11.6-7.63-30.05-39.26-60.61-78.66-96.73-112.6zm-19.08 193.82c-0.55 0.7-0.74 2.28-0.4 5.26 0.51-2.24 0.61-3.95 0.4-5.26z" transform="scale(.8)" fill="#37496d"/>
  <path id="path20" d="m445.95 253.76c-5.04 0.15-10.07 0.7-14.86 2.3-20.46 38.36-34.77 79.81-48.49 120.91-5.88 36.64-2.06 74.04 5.12 110.21 5.39 17.23 11.93 34.08 19.18 50.62 15.4 10.41 27.2 36.95 49.57 41.98 21.62 5.1 54.72 22.18 38.17 49.41-1-9.11 1.22-21.01-11.11-24.07-22.6-9.4-49.47-14.21-62.24-37.96-6.54 10.01-9.12 22.35-10.97 33.99-0.01 31.11 16.34 66.05 49.99 71.99-27.08 5.67-47.67-16.52-51.69-41.37-0.7 2.79-2.16 5.24-5.03 7.02-42.7 38.32-83.47 79.71-112.83 129.46-35.39 56.83-69.51 115.01-93.64 177.64-8.8 24.18-15.76 50.17-10.22 76.01 17.4 108.4 26.84 218.2 53.1 325 10.4 4.2 21.25 8.6 32.68 8.1 22.43-2.9 42.25 9.8 62.28 16.9-29.61-9-60.67-9.2-91.22-12.8 2.07 8.5 4.02 17.2 6.54 25.7 48.65 9.1 97.55 0.1 146.12-4.3-20.71-15.5-41.4-32-61.2-48.2 21.49 5.7 38.37 21.5 59.59 27.9-22.19-12.8-40.46-31.6-62.08-45.4 21.22 7.6 39.54 21.9 61.05 29-19.32-16.5-41.01-30.6-59.97-47.6 24.13 8.4 45.57 23.2 68.65 33.9-23.09-19.6-48.94-36.3-73.53-54 28.18 8 51.95 26.2 78.56 37.8-24.47-17.7-51.71-33-74.83-52.7 19.83 6.1 36.7 18.9 55.95 26.4-16.38-15.2-37.33-27.5-54.55-40.2 16.03 3.2 31.02 10 45.95 16.4-13.31-13.3-32.14-20.3-45.87-32.9 17.13 4 33.17 11.7 49.41 18.1-15.44-14.2-36.74-21.9-52.25-36.4 20.93 5.4 39.09 17.6 58.69 26.2-19.77-15.1-42.7-26.9-61.18-43.9 20.18 8.7 39.91 18.6 59.92 27.7-19.4-15.7-41.81-29.2-61.17-45.2 15.9 5 30.62 13 46.05 19.1-14.76-13.6-33.83-23.4-48.53-37.7 17.54 4.2 32.49 15.9 49.4 21-14.92-14.8-38.38-27.4-56.96-41 18.72 4.4 34.7 15.7 52.46 22.6-17.01-16.1-39.02-26-57.28-40.3 15.26 4.5 30.07 10.5 44.79 16.5-12.57-16.4-34.6-21.5-48.87-36.3 17.35 8.1 35.92 13 52.62 22.5-17.53-16.3-38.83-28-57.54-42.6 12.22 4.3 24.11 9.6 36.36 13.9-11.15-11-24.4-20-36.51-30 16.2 4.9 30.82 13.6 46.42 20-17.89-13.3-36.06-26.4-53.5-40.2 19.21 4.1 34.95 16.8 52.21 25.2-19.3-13.9-38.29-29.9-58.5-42.9 22.85 7.2 50.06 15.4 61.35 38.7-4.89-23.7-25.83-43-29.21-65.94-19.99 9.34-43.32 0.84-60.55-9.22 10.76-3.96 30.34 5.39 41.57 2.31-12.11-5.61-28.63-10.64-40.54-15.7 21.01-3.09 41.41 7.13 62.22 2.59-15.36-3.1-37.39-6.7-49.43-17.44 19.14 0.16 40.25 8.35 57.74 5.34-17.37 0.16-33.33-11.03-46.69-19.3 23.74 2.56 45.53 15.25 66.72 7.86-19.44 1.85-37.94-9.11-53.18-19.1 21.28 2.96 44.84 11.37 64.35 7.9-19.76 1.05-40.27-7.77-55.4-19.17 19.73 4.3 41.84 12.43 60.61 7.97-15.96 0.25-31.69-6.3-43.32-16.69 17.23 0.74 33.89 10.04 51.22 6.43-14.91-2.34-28.83-11.11-40.48-21.09 16.43 1.95 35.96 14.64 50.08 9.09-13.98-2.01-24.59-11.7-35.86-19.34 19.87 7.26 40.19 13.52 61.54 11.48 9.74-9.78 18.89-20.17 27.64-30.82 6.22 63.06 36.66 123.9 27.15 188.14 2.71 32.3 11.57 63.7 16.71 95.7 7.91 58.9-3.28 118.4-23.09 173.9 26.14 2.2 41.25 27.7 65.75 34.7-23.11 0.3-47.91-29.4-73.12-19.6-2.23 12.9-9.16 24.6-13.82 36.8 48.92 9.6 98.6 14.5 147.33 25.1-8.28-12-21.22-19.8-31.3-30.2 14.76 4.3 26.18 15.1 39.96 21.3-10.06-13.5-24.67-22.8-35.96-35.2 15.73 6 29.71 15.7 43.31 25.4-9.15-13.9-21.62-25.1-33.41-36.7 13.11 6.2 23.96 16.3 36.25 23.8-8.87-15.6-22.94-27.1-35.09-40 15.78 6.6 26.95 20.7 42.41 27.6-9.26-15.9-24.68-27.1-35.96-41.5 12.88 7.7 23.59 18.9 37.25 25.4-11.3-14.1-23.76-27.2-36.2-40.3 14.13 8.2 26.98 18.4 41.11 26.5-12.86-14.6-24.16-30.6-39.68-42.7 15.31 4.9 26.18 18 41 23.9-12-14.2-24.79-27.7-37.24-41.5 14.84 7.8 26.35 21 41.24 28.7-10.1-15.3-24.07-27.8-35-42.5 10.7 6.2 20.64 13.6 30.86 20.5-9.18-16.1-22.36-29.2-34.61-42.9 13 6.9 22.99 18 35.01 26.2-8.57-16.5-21.28-30.2-33.74-43.8 15.53 8.5 26.51 23 41.25 32.5-11.27-17.8-23.47-35.3-38.77-49.9 16.43 7.7 26.82 23.2 39.95 34.9-8.24-18.4-22.28-33.6-33.7-50 14.93 6.7 23.04 23.1 37.35 30-13.09-18-25.49-37.5-39.81-55 25.65 15.2 45.19 39.7 54.08 68.2 3.76-56.5-4.83-113-10.13-169.2-0.72 0.3-2.13 1-2.84 1.3-9.24-35.6-27.83-68.41-50.19-97.44 13.14 6.1 18.49 22.01 31.56 28.44-9.19-20.14-23.4-37.22-36.69-54.64 14.68 8.63 24.78 22.84 37.88 33.39-8.21-19.55-20.79-36.87-34.92-52.54 14.65 8.58 25.96 21.55 38.64 32.6-8.02-20.41-23.63-36.09-38.79-51.25 14.66 9.6 27.91 21.22 41.27 32.53-6.89-21.99-23.58-38.54-38.64-55.14 21.73 12.76 37.74 32.93 52.45 52.64-13.86-24.15-28.41-48.33-47.45-68.84 20.11 10.76 31.83 31.69 48.7 46.29-12.45-23.2-27.11-45.6-44.93-65.1 16.71 12.1 30.37 28.06 46.19 41.31-12.47-18.96-25.16-38.03-38.68-56.29 15.6 9.75 27.11 24.64 41.18 36.29-11.08-22.7-27.01-42.68-42.42-62.53 15.82 9.97 27.38 25.3 42.33 36.43-10.78-17.54-22.11-34.75-32.68-52.39 12.22 9.25 21.13 22.95 35.11 29.84-9.53-17.31-23.94-31.88-32.61-49.76 11.26 9.97 21.25 21.42 33.6 30.16-8.49-17.15-22.44-30.79-31.04-47.81 10.75 9.71 21.1 19.9 32.75 28.56-7.06-16.88-19.06-31.01-28.73-46.25 11.95 7.11 18.94 20.55 31.11 27.64-10.19-16.4-20.3-32.87-31.51-48.58 11.11 7.88 19.76 18.67 30.31 27.24-7.33-14.87-17.6-28.08-27.44-41.33 14.36 12.62 37.24 22.83 38.99 44.02-1-36.46-0.43-76.17-19.3-108.7-25.06-14.47-51.8-25.35-77.08-39.38 13.43-0.34 27.49 9.41 41.98 10.71-7.8-9.3-23.07-10.57-31.14-20.15 13.94 3.07 27.58 7.25 41.2 11.4-11.21-8.33-25.25-13.52-36.02-22.75 14.75 5.34 29.77 9.91 45.03 13.62-9.74-9.81-23.42-13.75-34.11-22.22 16.02 2.59 30.33 11.23 46.26 13.88-7.12-7.89-17.67-12.04-24.72-20.18 12.14 3.55 24.11 7.62 36.15 11.39-10.87-7.81-23.96-12.9-33.46-22.8 13.13 2.48 24.46 10.28 37.14 14.06-9.27-7.85-22.67-11.08-30.01-21.22 12.68 3.85 24.89 9.55 38.44 8.86 0.33-6.68-12.35-1.9-14.44-8.71-13.25-2.17-24.9-12.2-35.5-20.22-8.73-3.04-14.99-10.33-21.9-16.11-37.52-32.96-29.59-94.16-6.56-134.23 21.21-38.79 55.16-79.37 101.72-83.77 0.5-0.03 1.5-0.1 2-0.12-3.15-8.2-10.37-13.14-18.16-16.26-93.71 27.23-168.52 101.61-206.95 190.09-1 2.05-2.1 9.56-3.56 4 0.6 11.18-8.97 3.47-12.79 0.31-42.73-33.18-45.9-97.2-26.21-143.93 3.46-22.82 20.11-42.4 27.55-63.9zm-37.33 378.01c1.53-6.12-0.57-13.93 0.57-20.23-1.53 6.61-1.66 13.51-0.57 20.23zm0.57-20.23c0.15-0.65 0.29-1.3 0.47-1.94-0.2 0.63-0.35 1.28-0.47 1.94zm199.6 13.39c12.7 3.93 23.21 12.58 34.57 19.19 7.84 4.52-5.81 12.43 2.1 17.73 5.02 3.74 11.09 25.51 0.69 17.83 6.8 5.5 10.52 14.5 6.89 22.97-12.73-12.81-20.68-29.34-34.16-41.54 8.78 3.4 14.87 11.63 23.52 15.05-7.02-13.64-18.74-24.57-29.81-35.04 10.62 3.84 19.34 11.53 28.84 17.47-7.25-14.28-20.97-23.5-32.64-33.66zm12.5 54.98c13.1 10.01 34.97 18.14 33.1 37.97-14.39-8.18-21.12-26.28-33.1-37.97zm-230.14 167.6c12.74 11.25 31.18 9.73 44.03 20.03-17.23 7.66-32.02-9.98-44.03-20.03zm-8.54 9.85c14.49 11.14 33.17 10.44 48.58 19.3-15.81 7.76-37.59-5.72-48.58-19.3zm-6.35 13.83c14.78 7.05 33.5 6.99 47.28 13.8-14.34 12.59-35.29-3.13-47.28-13.8zm-14.81 10.01c16.47 8.34 36.54 6.07 52.25 15.25-17.13 12.11-39.78-3.21-52.25-15.25zm36.35 40.35c-20.31 18.31-38.39 39.27-56.26 59.99 20.73-17.93 39.81-38.03 56.26-59.99zm-116.36 86.95c17.66 5.8 44.44 8.9 50.06 29.9-16.79-9.2-35.65-17.8-50.06-29.9zm327.44 46.5c9.5 10.3 34 21.8 25.23 39-9.27-12.3-15.56-26.8-25.23-39zm0.07 19.8c10.92 11.2 34.21 24.3 26.27 42.6-9.96-13.4-16.45-29.1-26.27-42.6zm-2.42 17.4c14.72 9.7 38.11 28.5 29.87 48.1-8.64-17-17.12-33.9-29.87-48.1zm-3.85 16.4c17.36 11.7 36.32 28.7 37.7 50.9-17.12-12.7-22.79-35.6-37.7-50.9zm1.04 22.7c18.94 10.9 36.44 29.6 38.44 51.8-3.24-0.2-6.02-8.8-11.07-10.5 4.81 7.4 11.02 18.3 9.13 26-16.23-14.1-25.94-35.6-41.34-51.2 10.76 2.7 15.92 14.4 26 17.5-4.52-12.6-14.67-22.2-21.16-33.6z" transform="scale(.8)" fill="#4f4b1d"/>
  <path id="path4229" d="m493.9-0.072266c-30.5 0.17736-47.37 28.435-65.19 49.384-18.16 2.738-41.77 3.201-54.57 16.901 12.05 5.5 27.81 5.049 40.87 10.549 5.69-6.975 7.4-16.313 13.55-23 32.08-1.738 64.39-2.662 96.37 1.076 23.91 3.437 49.09 5.35 70.57 17.474 0.36-0.65 1.1-1.936 1.47-2.574-7.81-34.475-33.23-68.676-71.42-69.738h-28.65c-1.01-0.053906-2.01-0.077987-3-0.072266zm55.94 62.123c-1.31 7.375-2.52 14.837-5.05 21.912-1.58-6.938-3.19-13.876-5.07-20.738-3.6 9.175-4.13 19.65-9.83 27.988-2.4 4.987-0.04 7.887 5.35 7.725 20.99 5.572 19.16-24.475 14.6-36.887zm134.23 221.52c-46.56 4.4-80.51 44.98-101.72 83.77-23.03 40.07-30.96 101.27 6.56 134.23-20.69-33.07-18.65-76.02-6.67-111.85 19.36-38.26 48.35-73.5 87.56-92.4 4.85-4.02 17.36-5.97 14.27-13.75zm-260.21 31.43c-1.85 0.84-3.66 1.74-5.46 2.66-19.69 46.73-16.52 110.75 26.21 143.93 3.82 3.16 13.39 10.87 12.79-0.31-4.69-9.28-17.03-12.38-21.49-22.24 5.33 1.6 11.18 8.1 16.6 6.45-7.5-6.8-16.7-12.05-22.42-20.6 7.44 3.06 13.47 8.75 21.07 11.45-9.55-10.03-20.38-19.15-27.63-31.12 9.26 6.15 17.6 13.73 27.68 18.58-11.4-14.96-25.36-28.62-32.46-46.37 8.59 9.33 15.8 20.41 27.35 26.48-9-15.16-21.94-28.09-27.38-45.22 8.24 8.46 13.77 19.59 23.85 26.25-10.61-21.66-25.86-44.54-18.71-69.94zm217.24 157.64c4.19 5.12 10.71 7.06 16.33 10.15-4.7 5.08-13.05-0.57-18.62-1.65 3.48 4.8 8.89 8.27 11.08 13.95-6.78-2.6-13.09-6.26-19.86-8.88 3.32 7.64 11.3 11.28 16.25 17.6-5.54-1.87-10.89-4.31-16.37-6.34 3.79 5.89 11.3 9.93 14.63 15.13-7.77-1.74-14.24-6.95-21.97-8.88 4.2 5.33 9.59 9.62 13.61 15.09-6.58-2.15-12.38-6.02-18.64-8.9 4.36 7.43 13.27 10.1 18.12 16.95-4.56 1.43-22.95-15.88-24.85-9.18 10.6 8.02 22.25 18.05 35.5 20.22 10.17-16.76 19.35-35.46 20.28-55.37 3.97-17.5-16.47-3.38-25.49-9.89zm-18.79 65.11c7.34 10.14 20.74 13.37 30.01 21.22-12.68-3.78-24.01-11.58-37.14-14.06 9.5 9.9 22.59 14.99 33.46 22.8-12.04-3.77-24.01-7.84-36.15-11.39 7.05 8.14 17.6 12.29 24.72 20.18-15.93-2.65-30.24-11.29-46.26-13.88 10.69 8.47 24.37 12.41 34.11 22.22-15.26-3.71-30.28-8.28-45.03-13.62 10.77 9.23 24.81 14.42 36.02 22.75-13.62-4.15-27.26-8.33-41.2-11.4 8.07 9.58 23.34 10.85 31.14 20.15-14.49-1.3-28.55-11.05-41.98-10.71 25.28 14.03 52.02 24.91 77.08 39.38 13.41-26.24 9.13-57.49 19.66-84.78-13.55 0.69-25.76-5.01-38.44-8.86zm-215.41 0.05c4.08 10.13 9.54 19.6 14.39 29.36 12.77 23.75 39.64 28.56 62.24 37.96 12.33 3.06 10.11 14.96 11.11 24.07 16.55-27.23-16.55-44.31-38.17-49.41-22.37-5.03-34.17-31.57-49.57-41.98zm3.42 63.35c-0.16 2.11-0.5 6.34-0.66 8.45-8.7 31.41 15.54 70.9 50.65 63.54-33.65-5.94-50-40.88-49.99-71.99zm198.47 23.78c11.67 10.16 25.39 19.38 32.64 33.66-9.5-5.94-18.22-13.63-28.84-17.47 11.07 10.47 22.79 21.4 29.81 35.04-8.65-3.42-14.74-11.65-23.52-15.05 13.48 12.2 21.43 28.73 34.16 41.54 3.63-8.47-0.09-17.47-6.89-22.97 10.4 7.68 4.33-14.09-0.69-17.83-7.91-5.3 5.74-13.21-2.1-17.73-11.36-6.61-21.87-15.26-34.57-19.19zm12.5 54.98c11.98 11.69 18.71 29.79 33.1 37.97 1.87-19.83-20-27.96-33.1-37.97zm0.11 16.16c9.84 13.25 20.11 26.46 27.44 41.33-10.55-8.57-19.2-19.36-30.31-27.24 11.21 15.71 21.32 32.18 31.51 48.58-12.17-7.09-19.16-20.53-31.11-27.64 9.67 15.24 21.67 29.37 28.73 46.25-11.65-8.66-22-18.85-32.75-28.56 8.6 17.02 22.55 30.66 31.04 47.81-12.35-8.74-22.34-20.19-33.6-30.16 8.67 17.88 23.08 32.45 32.61 49.76-13.98-6.89-22.89-20.59-35.11-29.84 10.57 17.64 21.9 34.85 32.68 52.39-14.95-11.13-26.51-26.46-42.33-36.43 15.41 19.85 31.34 39.83 42.42 62.53-14.07-11.65-25.58-26.54-41.18-36.29 13.52 18.26 26.21 37.33 38.68 56.29-15.82-13.25-29.48-29.21-46.19-41.31 17.82 19.5 32.48 41.9 44.93 65.1-16.87-14.6-28.59-35.53-48.7-46.29 19.04 20.51 33.59 44.69 47.45 68.84-14.71-19.71-30.72-39.88-52.45-52.64 15.06 16.6 31.75 33.15 38.64 55.14-13.36-11.31-26.61-22.93-41.27-32.53 15.16 15.16 30.77 30.84 38.79 51.25-12.68-11.05-23.99-24.02-38.64-32.6 14.13 15.67 26.71 32.99 34.92 52.54-13.1-10.55-23.2-24.76-37.88-33.39 13.29 17.42 27.5 34.5 36.69 54.64-13.07-6.43-18.42-22.34-31.56-28.44 22.36 29.03 40.95 61.84 50.19 97.44 0.71-0.3 2.12-1 2.84-1.3 17.28-106.02 19.58-214 22.51-321.21-1.75-21.19-24.63-31.4-38.99-44.02zm237.26 130.44c-4.24 0.04-5.5 1.6 1.1 7.13 9.94 9.66 14.56 32.16-4.16 34.6-44.14 192.76-85.36 386.36-129.69 579.16-6.47 26.8 30.25 18.5 44.23 11.5-5.23-2.7-11.03-4.1-16.25-6.8 41.25-191.6 85.38-382.6 126.18-574.38 2.82-16.35-2.75-33.06 1.19-49.27-3.79 1.19-16.39-2-22.6-1.94zm-467.51 21c12.01 10.05 26.8 27.69 44.03 20.03-12.85-10.3-31.29-8.78-44.03-20.03zm-8.54 9.85c10.99 13.58 32.77 27.06 48.58 19.3-15.41-8.86-34.09-8.16-48.58-19.3zm-6.35 13.83c11.99 10.67 32.94 26.39 47.28 13.8-13.78-6.81-32.5-6.75-47.28-13.8zm-14.81 10.01c12.47 12.04 35.12 27.36 52.25 15.25-15.71-9.18-35.78-6.91-52.25-15.25zm-10.09 11.2c11.27 7.64 21.88 17.33 35.86 19.34-14.12 5.55-33.65-7.14-50.08-9.09 11.65 9.98 25.57 18.75 40.48 21.09-17.33 3.61-33.99-5.69-51.22-6.43 11.63 10.39 27.36 16.94 43.32 16.69-18.77 4.46-40.88-3.67-60.61-7.97 15.13 11.4 35.64 20.22 55.4 19.17-19.51 3.47-43.07-4.94-64.35-7.9 15.24 9.99 33.74 20.95 53.18 19.1-21.19 7.39-42.98-5.3-66.72-7.86 13.36 8.27 29.32 19.46 46.69 19.3-17.49 3.01-38.6-5.18-57.74-5.34 12.04 10.74 34.07 14.34 49.43 17.44-20.81 4.54-41.21-5.68-62.22-2.59 11.91 5.06 28.43 10.09 40.54 15.7-11.23 3.08-30.81-6.27-41.57-2.31 17.23 10.06 40.56 18.56 60.55 9.22 7.41-5.02 12.92-12.19 19.24-18.42 17.87-20.72 35.95-41.68 56.26-59.99 5.16-5.79 10.65-11.31 15.1-17.67-21.35 2.04-41.67-4.22-61.54-11.48zm-69.92 116.1c14.41 12.1 33.27 20.7 50.06 29.9-5.62-21-32.4-24.1-50.06-29.9zm8.72 18.7c20.21 13 39.2 29 58.5 42.9-17.26-8.4-33-21.1-52.21-25.2 17.44 13.8 35.61 26.9 53.5 40.2-15.6-6.4-30.22-15.1-46.42-20 12.11 10 25.36 19 36.51 30-12.25-4.3-24.14-9.6-36.36-13.9 18.71 14.6 40.01 26.3 57.54 42.6-16.7-9.5-35.27-14.4-52.62-22.5 14.27 14.8 36.3 19.9 48.87 36.3-14.72-6-29.53-12-44.79-16.5 18.26 14.3 40.27 24.2 57.28 40.3-17.76-6.9-33.74-18.2-52.46-22.6 18.58 13.6 42.04 26.2 56.96 41-16.91-5.1-31.86-16.8-49.4-21 14.7 14.3 33.77 24.1 48.53 37.7-15.43-6.1-30.15-14.1-46.05-19.1 19.36 16 41.77 29.5 61.17 45.2-20.01-9.1-39.74-19-59.92-27.7 18.48 17 41.41 28.8 61.18 43.9-19.6-8.6-37.76-20.8-58.69-26.2 15.51 14.5 36.81 22.2 52.25 36.4-16.24-6.4-32.28-14.1-49.41-18.1 13.73 12.6 32.56 19.6 45.87 32.9-14.93-6.4-29.92-13.2-45.95-16.4 17.22 12.7 38.17 25 54.55 40.2-19.25-7.5-36.12-20.3-55.95-26.4 23.12 19.7 50.36 35 74.83 52.7-26.61-11.6-50.38-29.8-78.56-37.8 24.59 17.7 50.44 34.4 73.53 54-23.08-10.7-44.52-25.5-68.65-33.9 18.96 17 40.65 31.1 59.97 47.6-21.51-7.1-39.83-21.4-61.05-29 21.62 13.8 39.89 32.6 62.08 45.4-21.22-6.4-38.1-22.2-59.59-27.9 19.8 16.2 40.49 32.7 61.2 48.2-48.57 4.4-97.47 13.4-146.12 4.3-34.47 7.4-68.67 17.8-99.94 34.2-4.04 3.8-12.89 5.7-12.72 12.4 49.62 0.3 99.38-1.4 148.89 0.8 56.64 0.2 113.29 0.7 169.92 0.7 48.77-0.3 97.7-1.5 146.41 0.6 10.09-0.1 20.36 1.4 30.38-0.3 9-67.2 13.3-135 14.79-202.7-8.89-28.5-28.43-53-54.08-68.2 14.32 17.5 26.72 37 39.81 55-14.31-6.9-22.42-23.3-37.35-30 11.42 16.4 25.46 31.6 33.7 50-13.13-11.7-23.52-27.2-39.95-34.9 15.3 14.6 27.5 32.1 38.77 49.9-14.74-9.5-25.72-24-41.25-32.5 12.46 13.6 25.17 27.3 33.74 43.8-12.02-8.2-22.01-19.3-35.01-26.2 12.25 13.7 25.43 26.8 34.61 42.9-10.22-6.9-20.16-14.3-30.86-20.5 10.93 14.7 24.9 27.2 35 42.5-14.89-7.7-26.4-20.9-41.24-28.7 12.45 13.8 25.24 27.3 37.24 41.5-14.82-5.9-25.69-19-41-23.9 15.52 12.1 26.82 28.1 39.68 42.7-14.13-8.1-26.98-18.3-41.11-26.5 12.44 13.1 24.9 26.2 36.2 40.3-13.66-6.5-24.37-17.7-37.25-25.4 11.28 14.4 26.7 25.6 35.96 41.5-15.46-6.9-26.63-21-42.41-27.6 12.15 12.9 26.22 24.4 35.09 40-12.29-7.5-23.14-17.6-36.25-23.8 11.79 11.6 24.26 22.8 33.41 36.7-13.6-9.7-27.58-19.4-43.31-25.4 11.29 12.4 25.9 21.7 35.96 35.2-13.78-6.2-25.2-17-39.96-21.3 10.08 10.4 23.02 18.2 31.3 30.2-48.73-10.6-98.41-15.5-147.33-25.1-1.82 0.1-5.5 0.3-7.33 0.5-12.78-108.8-41.47-215.4-81.28-317.3-11.29-23.3-38.5-31.5-61.35-38.7zm318.72 27.8c9.67 12.2 15.96 26.7 25.23 39 8.77-17.2-15.73-28.7-25.23-39zm0.07 19.8c9.82 13.5 16.31 29.2 26.27 42.6 7.94-18.3-15.35-31.4-26.27-42.6zm-2.42 17.4c12.75 14.2 21.23 31.1 29.87 48.1 8.24-19.6-15.15-38.4-29.87-48.1zm-3.85 16.4c14.91 15.3 20.58 38.2 37.7 50.9-1.38-22.2-20.34-39.2-37.7-50.9zm1.04 22.7c6.49 11.4 16.64 21 21.16 33.6-10.08-3.1-15.24-14.8-26-17.5 15.4 15.6 25.11 37.1 41.34 51.2 1.89-7.7-4.32-18.6-9.13-26 5.05 1.7 7.83 10.3 11.07 10.5-2-22.2-19.5-40.9-38.44-51.8zm-142.41 199.5c-5.17 3.1-5.72 9.8-7.37 15.1 25.21-9.8 50.01 19.9 73.12 19.6-24.5-7-39.61-32.5-65.75-34.7zm-221.31 16.1c0.04 4.1-0.11 9.5 3.74 12.2 30.55 3.6 61.61 3.8 91.22 12.8-20.03-7.1-39.85-19.8-62.28-16.9-11.43 0.5-22.28-3.9-32.68-8.1zm94.96 25c2.05 0.7 4.11 1.4 6.16 2-2.04-0.7-4.1-1.4-6.16-2zm337.32 90.4c-10.3 0-20.61 0.3-30.88 0.2 5.14 16.6-2.04 33.5-5.12 50.1-2.6 9.5-2.48 22.6-14.04 26.1 37.39 34.5 94.46 30.6 141.06 43.8h17.49c37.96 4.1 42.86-36.9 49.56-63.8-0.53-6.1-0.41-12.2-1.74-18.2-43.01-23.7-91.54-37.4-141.07-33 44.02 4.9 94.06 10.7 133.5 35.5 5.08 11.4-2.31 17.6-10.86 9.4 1.65 8.4 1.53 20.6-6.89 25.3 1.62-9.6 2.27-19.5 0.55-29.1-5.23 8.7-6.84 19.9-15.05 26.6 0.15-9.7 4.07-19.6 1.3-29.2-5.89 7-6.35 17.5-12.73 24.2 1.2-10.4 4.26-21.1 1.43-31.4-6.83 8.1-9.87 20.4-15.54 29.9-2.71-9.8 5.42-23.6 0.66-32.3-9.47 6.5-9.33 24.3-17.88 32.1 0.96-13.1 6.39-26.5 2.63-39.6-9.02 8.4-10.36 26.3-18.88 35.8 1.53-12.8 9.91-30.9 3-40.9-6.75 8.8-8.72 23.6-15.67 33.5-3.1-10.3 7.95-27.7-0.73-37.5-4.28 10.3-7.39 21-11.73 31.2-3.2-8.3 7.27-28.6-3.21-34.7-3.13 13.3-5.32 27-10.69 39.6-2.24-12 6.29-28.6 0.49-42.2-10.56 17.2-10.66 40.3-18.78 59.1 1.63-20 8.2-40.4 5.01-60.4-7.45 15.7-11.61 32.9-15.42 49.9-2.44-15.3 7.28-33.4 2.79-49.7-4.33 6.4-3.11 18.7-7.81 26.4-4.55-9 6-26.9-5.63-29.1 14.33-7.4 35.51-2.1 51.67-6-10.21-1.3-20.5-1.6-30.79-1.6zm28.02 93.9c29.45 0 58.79 8.5 88.17 5.3 4.92 1.2 14.78 3.7 16.14 8.1-33.85 10.9-74.48-4-104.31-13.4z" transform="scale(.8)" fill="#020201"/>
  <path id="path4231" d="m476.78 52.246c-16.08-0.019-32.18 0.647-48.22 1.516-6.15 6.687-7.86 16.025-13.55 23-1.67 27.848-15.76 51.778-26.23 76.838 4.37 9.9 25.96-2.75 17.26 15.1-8 16.01 18.34 20.1 11.39 36.51-4.78 24.45 29.9 21.44 44.47 22.88 0.75 7.92 1.04 15.9 2.26 23.79-9.01 34.17-21.94 70-20.06 106.61 23.94-0.04 51.97-1.06 71.69-16.5 26.31-28 57.12-54.04 75.4-88.21-0.08-22.52 6.05-44.87 2.45-67.38-0.52-24.11-9.96-49.06 0.07-72.4-2.06-12.99-1.08-28.912-12-38.324-13.26-9.363-27.57 4.049-26.21 18.224-0.24 11.3-13.69 5.362-20.26 5.038-5.39 0.162-7.75-2.738-5.35-7.725 1.47-12.125 3.24-26.113-4.96-36.375-15.99-1.869-32.06-2.573-48.15-2.592zm-40.75 50.344c2.8-0.11 6.37 1.3 7.91 2.3 3.46 2.73 12.75 1.17 10.81 7.42-3.84-1.19-19.24 5.9-14.97-2.38-2.64 1.36-2.07 6.06-5.96 5.1-11.81 12.43-14.05-21.705-1.56-8.5-0.1-2.84 1.6-3.85 3.77-3.94zm-80.99 248.66c-19.53 25.19-36.54 52.39-50 81.29-6.24 12.76-13.19 28.17-28.51 31.45-65.23 22.52-83.88 97.18-129.62 141.52-7.75 9.2-21.02 7.3-31.53 5.2-30.592-2.07-58.505 10.12-85.48 22.38 1.675 23.9 30.913 4.81 41.688 10.53-25.25 10.19-56.5 18.51-71.588 42.87v3.26c16.25 16.9 35.312-19.95 52.125-15.05-13.9 12.29-27.337 28.05-31.787 46.87-3.213 9.88 9.987 11.59 15.687 7.08 10.713-10.25 13.062-28.92 27.512-35.04-4.862 16.05-17.312 30.8-16.562 47.94 26.575 6.7 21.325-39.97 47.988-42.9-4.85 12.74-4.2 26.64-7.063 39.76-1.025 10.46 15.48 7.38 16.13-0.82 3.21-13.59 5.56-28.06 13.98-39.6 26.54-19.59 56.12-34.67 86.6-47.11 46.8-28.54 88.04-66.29 122.77-108.52 12.84-25.6 39.11-38.05 60.34-55.18-7.18-36.17-11-73.57-5.12-110.21-9.16-8.6-18.15-17.41-27.56-25.72zm416.16 52.43c-36.45 14.06-68.98 41.52-87.41 76.14 17.9 24.63 37.16 48.62 60.78 68.06 7.93 6.23 16.32 15.12 12.17 26.15-7.11 34.33-11.45 76.17 12.52 104.44 8.18 30.69 6.89 62.54 5.67 93.92-1.83 30.82 18.02 64.31 50.54 68.29 16.37 1.72 20.83 27.44 37.87 22.86 9.05-10.05-2.17-20.67-3.58-29.9-16.25-13.62 15.11-3.18 21.5-5.19-3.94 16.21 1.63 32.92-1.19 49.27 5.84-2.9 6.53 14.25 15.28 13.44 18.51 4.39 8.07-19.79 12.15-29.15v-13.73c-5.79-16.98 3.29-41.92-17.71-50.68-18.83-4.91-39.13-5.59-57.08-14.05-7.26-11.57 1.19-25.14-0.78-37.83 4.82-59.68 20.39-120.17 8.67-179.93-2.93-6.55-6.85-13.64-4.39-20.97 6.05-24.32-10.65-45.31-22.55-64.72-16.46-24.19-26.56-51.91-42.46-76.42z" transform="scale(.8)" fill="#b67452"/>
  <path id="path4233" d="m524.93 54.838c8.2 10.262 6.43 24.25 4.96 36.375 5.7-8.338 6.23-18.813 9.83-27.988 1.88 6.862 3.49 13.8 5.07 20.738 2.53-7.075 3.74-14.537 5.05-21.912 4.21 11.463 6.07 37.946-10.2 37.541 6.86 1.318 15.67 3.458 15.86-5.692-1.36-14.175 12.95-27.587 26.21-18.224 10.92 9.412 9.94 25.334 12 38.324 6.04-13.94 6.96-29.587 3.26-44.262-0.37 0.638-1.11 1.924-1.47 2.574-21.48-12.124-46.66-14.037-70.57-17.474zm14.71 44.754c-1.61-0.312-3.15-0.593-4.4-0.654 1.6 0.426 3.06 0.62 4.4 0.654zm-9.99 1332.7c-24.41 0.1-48.84 0.5-73.22 0.6 48.76 1.8 97.62 0.6 146.41 0.6-24.36-1-48.77-1.3-73.19-1.2z" transform="scale(.8)" fill="#787566"/>
  <path id="path4235" d="m436.03 102.59c-2.17 0.09-3.87 1.1-3.77 3.94 0.5 2.83 1.03 5.66 1.56 8.5 3.89 0.96 3.32-3.74 5.96-5.1 1.45-1.63 2.82-3.32 4.16-5.04-1.54-1-5.11-2.41-7.91-2.3zm-205.3 1328.5c-31.03-0.1-62.1 0.5-93.11 0.3 47.48 2.4 99.63 0.7 148.89 0.8-18.57-0.8-37.17-1.1-55.78-1.1zm444.39 12.4c-13.21-0.1-26.41 0.7-39.48 2.8-15.18 26.3-32.5 64.2-13.4 92.4 11.56-3.5 11.44-16.6 14.04-26.1 3.08-16.6 10.26-33.5 5.12-50.1 20.54 0.2 41.24-1.2 61.67 1.4-16.16 3.9-37.34-1.4-51.67 6 11.63 2.2 1.08 20.1 5.63 29.1 4.7-7.7 3.48-20 7.81-26.4 4.49 16.3-5.23 34.4-2.79 49.7 3.81-17 7.97-34.2 15.42-49.9 3.19 20-3.38 40.4-5.01 60.4 8.12-18.8 8.22-41.9 18.78-59.1 5.8 13.6-2.73 30.2-0.49 42.2 5.37-12.6 7.56-26.3 10.69-39.6 10.48 6.1 0.01 26.4 3.21 34.7 4.34-10.2 7.45-20.9 11.73-31.2 8.68 9.8-2.37 27.2 0.73 37.5 6.95-9.9 8.92-24.7 15.67-33.5 6.91 10-1.47 28.1-3 40.9 8.52-9.5 9.86-27.4 18.88-35.8 3.76 13.1-1.67 26.5-2.63 39.6 8.55-7.8 8.41-25.6 17.88-32.1 4.76 8.7-3.37 22.5-0.66 32.3 5.67-9.5 8.71-21.8 15.54-29.9 2.83 10.3-0.23 21-1.43 31.4 6.38-6.7 6.84-17.2 12.73-24.2 2.77 9.6-1.15 19.5-1.3 29.2 8.21-6.7 9.82-17.9 15.05-26.6 1.72 9.6 1.07 19.5-0.55 29.1 8.42-4.7 8.54-16.9 6.89-25.3 8.55 8.2 15.94 2 10.86-9.4-39.44-24.8-89.48-30.6-133.5-35.5 49.53-4.4 98.06 9.3 141.07 33 1.33 6 1.21 12.1 1.74 18.2 9.61-38.1-35.43-46.1-60.21-59.8-13.98 7-50.7 15.3-44.23-11.5-16.8-2.3-33.81-3.8-50.79-3.9zm25.18 112.7c29.83 9.4 70.46 24.3 104.31 13.4-1.36-4.4-11.22-6.9-16.14-8.1-29.38 3.2-58.72-5.3-88.17-5.3z" transform="scale(.8)" fill="#3a3d36"/>
  <path id="path4239" d="m600.37 249.91c-1.57 0-3.13 0.02-4.69 0.06-2.55-0.46-3.29 2.17-4.49 3.81-18.28 34.17-49.09 60.21-75.4 88.21-19.72 15.44-47.75 16.46-71.69 16.5-1.88-36.61 11.05-72.44 20.06-106.61-6.1 0.04-13.11-2.58-18.21 1.88-7.44 21.5-24.09 41.08-27.55 63.9 1.8-0.92 3.61-1.82 5.46-2.66-7.15 25.4 8.1 48.28 18.71 69.94-10.08-6.66-15.61-17.79-23.85-26.25 5.44 17.13 18.38 30.06 27.38 45.22-11.55-6.07-18.76-17.15-27.35-26.48 7.1 17.75 21.06 31.41 32.46 46.37-10.08-4.85-18.42-12.43-27.68-18.58 7.25 11.97 18.08 21.09 27.63 31.12-7.6-2.7-13.63-8.39-21.07-11.45 5.72 8.55 14.92 13.8 22.42 20.6-5.42 1.65-11.27-4.85-16.6-6.45 4.46 9.86 16.8 12.96 21.49 22.24 1.46 5.56 2.56-1.95 3.56-4 38.43-88.48 113.24-162.86 206.95-190.09-20.2-12.28-44.05-17.29-67.54-17.28zm-169.28 6.15c-39.14 12.08-55.86 53.69-83.66 80.13-8.15 6.03 3.11 10.71 7.61 15.06 9.41 8.31 18.4 17.12 27.56 25.72 13.72-41.1 28.03-82.55 48.49-120.91zm254.98 27.39c-0.5 0.02-1.5 0.09-2 0.12 3.09 7.78-9.42 9.73-14.27 13.75-39.21 18.9-68.2 54.14-87.56 92.4-11.98 35.83-14.02 78.78 6.67 111.85 6.91 5.78 13.17 13.07 21.9 16.11 1.9-6.7 20.29 10.61 24.85 9.18-4.85-6.85-13.76-9.52-18.12-16.95 6.26 2.88 12.06 6.75 18.64 8.9-4.02-5.47-9.41-9.76-13.61-15.09 7.73 1.93 14.2 7.14 21.97 8.88-3.33-5.2-10.84-9.24-14.63-15.13 5.48 2.03 10.83 4.47 16.37 6.34-4.95-6.32-12.93-9.96-16.25-17.6 6.77 2.62 13.08 6.28 19.86 8.88-2.19-5.68-7.6-9.15-11.08-13.95 5.57 1.08 13.92 6.73 18.62 1.65-5.62-3.09-12.14-5.03-16.33-10.15 7.87 5.68 24.42-4.34 25.89 4.63 2.53-3.25 12.98 12.96 16.8 2.55 18.43-34.62 50.96-62.08 87.41-76.14 2.19-2.92 15.61-1.93 11.6-7.63-30.05-39.26-60.61-78.66-96.73-112.6zm-19.08 193.82c-0.55 0.7-0.74 2.28-0.4 5.26 0.51-2.24 0.61-3.95 0.4-5.26z" transform="scale(.8)" fill="#37496d"/>
  <path id="path4241" d="m445.95 253.76c-5.04 0.15-10.07 0.7-14.86 2.3-20.46 38.36-34.77 79.81-48.49 120.91-5.88 36.64-2.06 74.04 5.12 110.21 5.39 17.23 11.93 34.08 19.18 50.62 15.4 10.41 27.2 36.95 49.57 41.98 21.62 5.1 54.72 22.18 38.17 49.41-1-9.11 1.22-21.01-11.11-24.07-22.6-9.4-49.47-14.21-62.24-37.96-6.54 10.01-9.12 22.35-10.97 33.99-0.01 31.11 16.34 66.05 49.99 71.99-27.08 5.67-47.67-16.52-51.69-41.37-0.7 2.79-2.16 5.24-5.03 7.02-42.7 38.32-83.47 79.71-112.83 129.46-35.39 56.83-69.51 115.01-93.64 177.64-8.8 24.18-15.76 50.17-10.22 76.01 17.4 108.4 26.84 218.2 53.1 325 10.4 4.2 21.25 8.6 32.68 8.1 22.43-2.9 42.25 9.8 62.28 16.9-29.61-9-60.67-9.2-91.22-12.8 2.07 8.5 4.02 17.2 6.54 25.7 48.65 9.1 97.55 0.1 146.12-4.3-20.71-15.5-41.4-32-61.2-48.2 21.49 5.7 38.37 21.5 59.59 27.9-22.19-12.8-40.46-31.6-62.08-45.4 21.22 7.6 39.54 21.9 61.05 29-19.32-16.5-41.01-30.6-59.97-47.6 24.13 8.4 45.57 23.2 68.65 33.9-23.09-19.6-48.94-36.3-73.53-54 28.18 8 51.95 26.2 78.56 37.8-24.47-17.7-51.71-33-74.83-52.7 19.83 6.1 36.7 18.9 55.95 26.4-16.38-15.2-37.33-27.5-54.55-40.2 16.03 3.2 31.02 10 45.95 16.4-13.31-13.3-32.14-20.3-45.87-32.9 17.13 4 33.17 11.7 49.41 18.1-15.44-14.2-36.74-21.9-52.25-36.4 20.93 5.4 39.09 17.6 58.69 26.2-19.77-15.1-42.7-26.9-61.18-43.9 20.18 8.7 39.91 18.6 59.92 27.7-19.4-15.7-41.81-29.2-61.17-45.2 15.9 5 30.62 13 46.05 19.1-14.76-13.6-33.83-23.4-48.53-37.7 17.54 4.2 32.49 15.9 49.4 21-14.92-14.8-38.38-27.4-56.96-41 18.72 4.4 34.7 15.7 52.46 22.6-17.01-16.1-39.02-26-57.28-40.3 15.26 4.5 30.07 10.5 44.79 16.5-12.57-16.4-34.6-21.5-48.87-36.3 17.35 8.1 35.92 13 52.62 22.5-17.53-16.3-38.83-28-57.54-42.6 12.22 4.3 24.11 9.6 36.36 13.9-11.15-11-24.4-20-36.51-30 16.2 4.9 30.82 13.6 46.42 20-17.89-13.3-36.06-26.4-53.5-40.2 19.21 4.1 34.95 16.8 52.21 25.2-19.3-13.9-38.29-29.9-58.5-42.9 22.85 7.2 50.06 15.4 61.35 38.7-4.89-23.7-25.83-43-29.21-65.94-19.99 9.34-43.32 0.84-60.55-9.22 10.76-3.96 30.34 5.39 41.57 2.31-12.11-5.61-28.63-10.64-40.54-15.7 21.01-3.09 41.41 7.13 62.22 2.59-15.36-3.1-37.39-6.7-49.43-17.44 19.14 0.16 40.25 8.35 57.74 5.34-17.37 0.16-33.33-11.03-46.69-19.3 23.74 2.56 45.53 15.25 66.72 7.86-19.44 1.85-37.94-9.11-53.18-19.1 21.28 2.96 44.84 11.37 64.35 7.9-19.76 1.05-40.27-7.77-55.4-19.17 19.73 4.3 41.84 12.43 60.61 7.97-15.96 0.25-31.69-6.3-43.32-16.69 17.23 0.74 33.89 10.04 51.22 6.43-14.91-2.34-28.83-11.11-40.48-21.09 16.43 1.95 35.96 14.64 50.08 9.09-13.98-2.01-24.59-11.7-35.86-19.34 19.87 7.26 40.19 13.52 61.54 11.48 9.74-9.78 18.89-20.17 27.64-30.82 6.22 63.06 36.66 123.9 27.15 188.14 2.71 32.3 11.57 63.7 16.71 95.7 7.91 58.9-3.28 118.4-23.09 173.9 26.14 2.2 41.25 27.7 65.75 34.7-23.11 0.3-47.91-29.4-73.12-19.6-2.23 12.9-9.16 24.6-13.82 36.8 48.92 9.6 98.6 14.5 147.33 25.1-8.28-12-21.22-19.8-31.3-30.2 14.76 4.3 26.18 15.1 39.96 21.3-10.06-13.5-24.67-22.8-35.96-35.2 15.73 6 29.71 15.7 43.31 25.4-9.15-13.9-21.62-25.1-33.41-36.7 13.11 6.2 23.96 16.3 36.25 23.8-8.87-15.6-22.94-27.1-35.09-40 15.78 6.6 26.95 20.7 42.41 27.6-9.26-15.9-24.68-27.1-35.96-41.5 12.88 7.7 23.59 18.9 37.25 25.4-11.3-14.1-23.76-27.2-36.2-40.3 14.13 8.2 26.98 18.4 41.11 26.5-12.86-14.6-24.16-30.6-39.68-42.7 15.31 4.9 26.18 18 41 23.9-12-14.2-24.79-27.7-37.24-41.5 14.84 7.8 26.35 21 41.24 28.7-10.1-15.3-24.07-27.8-35-42.5 10.7 6.2 20.64 13.6 30.86 20.5-9.18-16.1-22.36-29.2-34.61-42.9 13 6.9 22.99 18 35.01 26.2-8.57-16.5-21.28-30.2-33.74-43.8 15.53 8.5 26.51 23 41.25 32.5-11.27-17.8-23.47-35.3-38.77-49.9 16.43 7.7 26.82 23.2 39.95 34.9-8.24-18.4-22.28-33.6-33.7-50 14.93 6.7 23.04 23.1 37.35 30-13.09-18-25.49-37.5-39.81-55 25.65 15.2 45.19 39.7 54.08 68.2 3.76-56.5-4.83-113-10.13-169.2-0.72 0.3-2.13 1-2.84 1.3-9.24-35.6-27.83-68.41-50.19-97.44 13.14 6.1 18.49 22.01 31.56 28.44-9.19-20.14-23.4-37.22-36.69-54.64 14.68 8.63 24.78 22.84 37.88 33.39-8.21-19.55-20.79-36.87-34.92-52.54 14.65 8.58 25.96 21.55 38.64 32.6-8.02-20.41-23.63-36.09-38.79-51.25 14.66 9.6 27.91 21.22 41.27 32.53-6.89-21.99-23.58-38.54-38.64-55.14 21.73 12.76 37.74 32.93 52.45 52.64-13.86-24.15-28.41-48.33-47.45-68.84 20.11 10.76 31.83 31.69 48.7 46.29-12.45-23.2-27.11-45.6-44.93-65.1 16.71 12.1 30.37 28.06 46.19 41.31-12.47-18.96-25.16-38.03-38.68-56.29 15.6 9.75 27.11 24.64 41.18 36.29-11.08-22.7-27.01-42.68-42.42-62.53 15.82 9.97 27.38 25.3 42.33 36.43-10.78-17.54-22.11-34.75-32.68-52.39 12.22 9.25 21.13 22.95 35.11 29.84-9.53-17.31-23.94-31.88-32.61-49.76 11.26 9.97 21.25 21.42 33.6 30.16-8.49-17.15-22.44-30.79-31.04-47.81 10.75 9.71 21.1 19.9 32.75 28.56-7.06-16.88-19.06-31.01-28.73-46.25 11.95 7.11 18.94 20.55 31.11 27.64-10.19-16.4-20.3-32.87-31.51-48.58 11.11 7.88 19.76 18.67 30.31 27.24-7.33-14.87-17.6-28.08-27.44-41.33 14.36 12.62 37.24 22.83 38.99 44.02-1-36.46-0.43-76.17-19.3-108.7-25.06-14.47-51.8-25.35-77.08-39.38 13.43-0.34 27.49 9.41 41.98 10.71-7.8-9.3-23.07-10.57-31.14-20.15 13.94 3.07 27.58 7.25 41.2 11.4-11.21-8.33-25.25-13.52-36.02-22.75 14.75 5.34 29.77 9.91 45.03 13.62-9.74-9.81-23.42-13.75-34.11-22.22 16.02 2.59 30.33 11.23 46.26 13.88-7.12-7.89-17.67-12.04-24.72-20.18 12.14 3.55 24.11 7.62 36.15 11.39-10.87-7.81-23.96-12.9-33.46-22.8 13.13 2.48 24.46 10.28 37.14 14.06-9.27-7.85-22.67-11.08-30.01-21.22 12.68 3.85 24.89 9.55 38.44 8.86 0.33-6.68-12.35-1.9-14.44-8.71-13.25-2.17-24.9-12.2-35.5-20.22-8.73-3.04-14.99-10.33-21.9-16.11-37.52-32.96-29.59-94.16-6.56-134.23 21.21-38.79 55.16-79.37 101.72-83.77 0.5-0.03 1.5-0.1 2-0.12-3.15-8.2-10.37-13.14-18.16-16.26-93.71 27.23-168.52 101.61-206.95 190.09-1 2.05-2.1 9.56-3.56 4 0.6 11.18-8.97 3.47-12.79 0.31-42.73-33.18-45.9-97.2-26.21-143.93 3.46-22.82 20.11-42.4 27.55-63.9zm-37.33 378.01c1.53-6.12-0.57-13.93 0.57-20.23-1.53 6.61-1.66 13.51-0.57 20.23zm0.57-20.23c0.15-0.65 0.29-1.3 0.47-1.94-0.2 0.63-0.35 1.28-0.47 1.94zm199.6 13.39c12.7 3.93 23.21 12.58 34.57 19.19 7.84 4.52-5.81 12.43 2.1 17.73 5.02 3.74 11.09 25.51 0.69 17.83 6.8 5.5 10.52 14.5 6.89 22.97-12.73-12.81-20.68-29.34-34.16-41.54 8.78 3.4 14.87 11.63 23.52 15.05-7.02-13.64-18.74-24.57-29.81-35.04 10.62 3.84 19.34 11.53 28.84 17.47-7.25-14.28-20.97-23.5-32.64-33.66zm12.5 54.98c13.1 10.01 34.97 18.14 33.1 37.97-14.39-8.18-21.12-26.28-33.1-37.97zm-230.14 167.6c12.74 11.25 31.18 9.73 44.03 20.03-17.23 7.66-32.02-9.98-44.03-20.03zm-8.54 9.85c14.49 11.14 33.17 10.44 48.58 19.3-15.81 7.76-37.59-5.72-48.58-19.3zm-6.35 13.83c14.78 7.05 33.5 6.99 47.28 13.8-14.34 12.59-35.29-3.13-47.28-13.8zm-14.81 10.01c16.47 8.34 36.54 6.07 52.25 15.25-17.13 12.11-39.78-3.21-52.25-15.25zm36.35 40.35c-20.31 18.31-38.39 39.27-56.26 59.99 20.73-17.93 39.81-38.03 56.26-59.99zm-116.36 86.95c17.66 5.8 44.44 8.9 50.06 29.9-16.79-9.2-35.65-17.8-50.06-29.9zm327.44 46.5c9.5 10.3 34 21.8 25.23 39-9.27-12.3-15.56-26.8-25.23-39zm0.07 19.8c10.92 11.2 34.21 24.3 26.27 42.6-9.96-13.4-16.45-29.1-26.27-42.6zm-2.42 17.4c14.72 9.7 38.11 28.5 29.87 48.1-8.64-17-17.12-33.9-29.87-48.1zm-3.85 16.4c17.36 11.7 36.32 28.7 37.7 50.9-17.12-12.7-22.79-35.6-37.7-50.9zm1.04 22.7c18.94 10.9 36.44 29.6 38.44 51.8-3.24-0.2-6.02-8.8-11.07-10.5 4.81 7.4 11.02 18.3 9.13 26-16.23-14.1-25.94-35.6-41.34-51.2 10.76 2.7 15.92 14.4 26 17.5-4.52-12.6-14.67-22.2-21.16-33.6z" transform="scale(.8)" fill="#4f4b1d"/>
 </g>
</svg>
